<?xml version="1.0" encoding="UTF-8"?>
<svg version="1.1" xmlns="http://www.w3.org/2000/svg" width="512" height="512">
<path d="M0 0 C1.19834473 -0.01393799 2.39668945 -0.02787598 3.63134766 -0.04223633 C17.48080776 0.03033809 30.18268506 3.35372686 43.22186279 7.64746094 C55.49464441 11.67178392 67.7141193 15.37711268 80.5 17.375 C81.54293213 17.54418945 81.54293213 17.54418945 82.60693359 17.71679688 C118.68858136 23.32525719 153.01209564 16.57545211 187.23901367 5.49755859 C209.17533356 -1.51904328 233.36326195 -2.61525096 255.5 4.375 C257.36978516 4.95314453 257.36978516 4.95314453 259.27734375 5.54296875 C277.40095527 11.62352897 292.38552956 21.7132803 306.5 34.375 C307.27988281 35.06980469 308.05976563 35.76460937 308.86328125 36.48046875 C321.41770008 48.34634541 330.83214433 63.01265259 338.5 78.375 C338.86464355 79.10299805 339.22928711 79.83099609 339.60498047 80.58105469 C361.51826377 125.1218614 362.24712227 177.4865802 346.97265625 224.125 C339.80612047 245.07780646 328.75890788 262.69755589 314.72265625 279.6796875 C300.2227027 297.26311096 293.06783976 314.74567187 290.60546875 337.52734375 C290.45239285 338.85822564 290.29809226 340.18896715 290.14266968 341.51957703 C289.8161134 344.32884916 289.4957575 347.13872314 289.18045044 349.94927979 C288.34445435 357.38291433 287.4552669 364.81034676 286.5703125 372.23828125 C286.48229685 372.97944939 286.3942812 373.72061752 286.3035984 374.4842453 C282.79568727 403.99061824 278.2228021 433.28364021 272.8125 462.5 C272.62599884 463.51523743 272.43949768 464.53047485 272.24734497 465.57647705 C265.96600267 499.55151791 265.96600267 499.55151791 256.546875 506.8984375 C247.96020308 512.56826285 238.60258266 513.80668868 228.5 512.375 C220.88033268 509.98534987 214.811155 506.13311319 210.5 499.375 C207.53540315 493.52528228 205.44221231 487.4603277 203.58203125 481.1875 C203.04946282 479.43167759 202.51674225 477.67590132 201.98388672 475.92016602 C201.57490143 474.56171066 201.57490143 474.56171066 201.15765381 473.17581177 C188.22370519 430.31313386 174.119754 383.67966004 145.5 348.375 C144.85546875 347.56546875 144.2109375 346.7559375 143.546875 345.921875 C136.2172789 337.16211381 126.89384085 329.16254564 115.2109375 328.06640625 C102.24300638 327.60822453 94.31220576 332.18629418 84.5 340.375 C47.56646159 375.21912027 32.38638225 436.34442224 18.42480469 483.59570312 C15.65780177 492.7006084 11.7423827 500.52455834 3.41015625 505.6640625 C-4.94215807 509.98797941 -14.13718572 510.89616462 -23.359375 508.69140625 C-32.55931792 505.24857047 -39.02857347 500.14413046 -43.5 491.375 C-44.57692328 488.40256625 -45.24504369 485.40754174 -45.875 482.3125 C-46.07432129 481.38026611 -46.27364258 480.44803223 -46.47900391 479.48754883 C-47.18107467 476.12180142 -47.84476516 472.75017947 -48.5 469.375 C-48.62761719 468.72168701 -48.75523438 468.06837402 -48.88671875 467.39526367 C-55.4300553 433.80904772 -60.38060836 399.94256894 -64.3203125 365.95703125 C-64.47195862 364.65819504 -64.62360474 363.35935883 -64.77984619 362.02116394 C-65.51775897 355.6838607 -66.23831168 349.34544874 -66.92773438 343.00268555 C-69.66412823 318.5743633 -75.22330234 299.15783425 -91.5 280.375 C-123.98386781 241.72299874 -137.70960405 193.33843801 -133.60546875 143.20776367 C-130.20386174 107.79797955 -117.7896242 73.59136317 -94.5 46.375 C-93.81421875 45.56675781 -93.1284375 44.75851563 -92.421875 43.92578125 C-75.30198829 24.31181033 -54.65956274 10.56721008 -29.5 3.375 C-28.42363281 3.05402344 -27.34726563 2.73304687 -26.23828125 2.40234375 C-17.53302957 0.22855849 -8.93835074 0.06651743 0 0 Z " fill="#E4E4E4" transform="translate(144.5,-0.375)"/>
</svg>
